<mxfile host="app.diagrams.net" modified="2023-12-27T19:57:57.619Z" agent="Mozilla/5.0 (Windows NT 10.0; Win64; x64) AppleWebKit/537.36 (KHTML, like Gecko) Chrome/120.0.0.0 Safari/537.36 Edg/120.0.0.0" etag="luHOPLJGMH3HSUD-CIrk" version="22.1.15" type="github">
  <diagram id="C5RBs43oDa-KdzZeNtuy" name="Page-1">
    <mxGraphModel dx="1386" dy="751" grid="1" gridSize="10" guides="1" tooltips="1" connect="1" arrows="1" fold="1" page="1" pageScale="1" pageWidth="827" pageHeight="1169" math="0" shadow="0">
      <root>
        <mxCell id="WIyWlLk6GJQsqaUBKTNV-0" />
        <mxCell id="WIyWlLk6GJQsqaUBKTNV-1" parent="WIyWlLk6GJQsqaUBKTNV-0" />
        <mxCell id="dNDCiog_Eq4_YMd-YiVN-2" value="" style="edgeStyle=orthogonalEdgeStyle;rounded=0;orthogonalLoop=1;jettySize=auto;html=1;" edge="1" parent="WIyWlLk6GJQsqaUBKTNV-1" source="dNDCiog_Eq4_YMd-YiVN-0" target="dNDCiog_Eq4_YMd-YiVN-1">
          <mxGeometry relative="1" as="geometry" />
        </mxCell>
        <mxCell id="dNDCiog_Eq4_YMd-YiVN-0" value="2 random hesap seç." style="rounded=0;whiteSpace=wrap;html=1;" vertex="1" parent="WIyWlLk6GJQsqaUBKTNV-1">
          <mxGeometry x="180" y="120" width="120" height="60" as="geometry" />
        </mxCell>
        <mxCell id="dNDCiog_Eq4_YMd-YiVN-4" value="" style="edgeStyle=orthogonalEdgeStyle;rounded=0;orthogonalLoop=1;jettySize=auto;html=1;" edge="1" parent="WIyWlLk6GJQsqaUBKTNV-1" source="dNDCiog_Eq4_YMd-YiVN-1" target="dNDCiog_Eq4_YMd-YiVN-3">
          <mxGeometry relative="1" as="geometry" />
        </mxCell>
        <mxCell id="dNDCiog_Eq4_YMd-YiVN-1" value="Kullanıcıya A veya B seçtir." style="whiteSpace=wrap;html=1;rounded=0;" vertex="1" parent="WIyWlLk6GJQsqaUBKTNV-1">
          <mxGeometry x="180" y="260" width="120" height="60" as="geometry" />
        </mxCell>
        <mxCell id="dNDCiog_Eq4_YMd-YiVN-6" value="" style="edgeStyle=orthogonalEdgeStyle;rounded=0;orthogonalLoop=1;jettySize=auto;html=1;" edge="1" parent="WIyWlLk6GJQsqaUBKTNV-1" source="dNDCiog_Eq4_YMd-YiVN-3" target="dNDCiog_Eq4_YMd-YiVN-5">
          <mxGeometry relative="1" as="geometry" />
        </mxCell>
        <mxCell id="dNDCiog_Eq4_YMd-YiVN-7" value="Hayır" style="edgeLabel;html=1;align=center;verticalAlign=middle;resizable=0;points=[];" vertex="1" connectable="0" parent="dNDCiog_Eq4_YMd-YiVN-6">
          <mxGeometry x="-0.1778" y="-1" relative="1" as="geometry">
            <mxPoint as="offset" />
          </mxGeometry>
        </mxCell>
        <mxCell id="dNDCiog_Eq4_YMd-YiVN-9" value="" style="edgeStyle=orthogonalEdgeStyle;rounded=0;orthogonalLoop=1;jettySize=auto;html=1;" edge="1" parent="WIyWlLk6GJQsqaUBKTNV-1" source="dNDCiog_Eq4_YMd-YiVN-3" target="dNDCiog_Eq4_YMd-YiVN-8">
          <mxGeometry relative="1" as="geometry" />
        </mxCell>
        <mxCell id="dNDCiog_Eq4_YMd-YiVN-10" value="Evet" style="edgeLabel;html=1;align=center;verticalAlign=middle;resizable=0;points=[];" vertex="1" connectable="0" parent="dNDCiog_Eq4_YMd-YiVN-9">
          <mxGeometry x="0.1091" y="-1" relative="1" as="geometry">
            <mxPoint as="offset" />
          </mxGeometry>
        </mxCell>
        <mxCell id="dNDCiog_Eq4_YMd-YiVN-3" value="Kullanıcı bildi mi?" style="rhombus;whiteSpace=wrap;html=1;rounded=0;" vertex="1" parent="WIyWlLk6GJQsqaUBKTNV-1">
          <mxGeometry x="150" y="390" width="180" height="80" as="geometry" />
        </mxCell>
        <mxCell id="dNDCiog_Eq4_YMd-YiVN-5" value="Oyunu bitir." style="whiteSpace=wrap;html=1;rounded=0;" vertex="1" parent="WIyWlLk6GJQsqaUBKTNV-1">
          <mxGeometry x="180" y="560" width="120" height="60" as="geometry" />
        </mxCell>
        <mxCell id="dNDCiog_Eq4_YMd-YiVN-12" value="" style="edgeStyle=orthogonalEdgeStyle;rounded=0;orthogonalLoop=1;jettySize=auto;html=1;" edge="1" parent="WIyWlLk6GJQsqaUBKTNV-1" source="dNDCiog_Eq4_YMd-YiVN-8" target="dNDCiog_Eq4_YMd-YiVN-11">
          <mxGeometry relative="1" as="geometry" />
        </mxCell>
        <mxCell id="dNDCiog_Eq4_YMd-YiVN-14" value="Skor +1" style="edgeLabel;html=1;align=center;verticalAlign=middle;resizable=0;points=[];" vertex="1" connectable="0" parent="dNDCiog_Eq4_YMd-YiVN-12">
          <mxGeometry x="-0.1" relative="1" as="geometry">
            <mxPoint as="offset" />
          </mxGeometry>
        </mxCell>
        <mxCell id="dNDCiog_Eq4_YMd-YiVN-8" value="2. hesabı 1. yap." style="whiteSpace=wrap;html=1;rounded=0;" vertex="1" parent="WIyWlLk6GJQsqaUBKTNV-1">
          <mxGeometry x="440" y="400" width="120" height="60" as="geometry" />
        </mxCell>
        <mxCell id="dNDCiog_Eq4_YMd-YiVN-13" style="edgeStyle=orthogonalEdgeStyle;rounded=0;orthogonalLoop=1;jettySize=auto;html=1;exitX=0.5;exitY=0;exitDx=0;exitDy=0;entryX=1;entryY=0.5;entryDx=0;entryDy=0;" edge="1" parent="WIyWlLk6GJQsqaUBKTNV-1" source="dNDCiog_Eq4_YMd-YiVN-11" target="dNDCiog_Eq4_YMd-YiVN-1">
          <mxGeometry relative="1" as="geometry" />
        </mxCell>
        <mxCell id="dNDCiog_Eq4_YMd-YiVN-11" value="1 tane yeni random hesap seç." style="whiteSpace=wrap;html=1;rounded=0;" vertex="1" parent="WIyWlLk6GJQsqaUBKTNV-1">
          <mxGeometry x="670" y="400" width="120" height="60" as="geometry" />
        </mxCell>
      </root>
    </mxGraphModel>
  </diagram>
</mxfile>
